/* XPM */
static char * Tmp.Icon32x32[] = {
/* arrdown pixmap
 * width height ncolors chars_per_pixel */
"32 32 256 2",
"     c #ffffffffffff",
".    c #ffffffff0000",
"*    c #ffff0000ffff",
"/    c #ffff00000000",
"-    c #0000ffffffff",
"+    c #0000ffff0000",
"0    c #00000000ffff",
"1    c #000000000000",
"2    c #3e3e3e3e3e3e",
"3    c #323232323232",
"4    c #000000001f1f",
"5    c #d5d500000303",
"6    c #f2f212121313",
"7    c #ffff23232525",
"8    c #ffff36363939",
"9    c #d7d700000707",
"a    c #545400000202",
"b    c #f1f10c0c1313",
"c    c #ffff2d2d3232",
"d    c #3a3a16161717",
"e    c #f1f100000c0c",
"f    c #ffff15152020",
"g    c #373735353636",
"h    c #343433333434",
"i    c #2e2e2d2d3131",
"j    c #343433333939",
"k    c #262625253535",
"l    c #191918182f2f",
"m    c #000000009797",
"n    c #000000008e8e",
"o    c #000000008a8a",
"p    c #000000008585",
"q    c #000000008282",
"r    c #000000007e7e",
"s    c #000000007a7a",
"t    c #000000007676",
"u    c #000000007474",
"v    c #000000007373",
"w    c #000000007070",
"x    c #000000006f6f",
"y    c #000000006d6d",
"z    c #000001016969",
"A    c #000000006767",
"B    c #000000006565",
"C    c #000000006262",
"D    c #000000006161",
"E    c #000000005d5d",
"F    c #000000005a5a",
"G    c #000000005858",
"H    c #000000005757",
"I    c #000000005555",
"J    c #000000005353",
"K    c #000000005050",
"L    c #000000004e4e",
"M    c #000000004d4d",
"N    c #000001014b4b",
"O    c #000000004848",
"P    c #000000004646",
"Q    c #000000004545",
"R    c #000000004343",
"S    c #000000004040",
"T    c #000000003e3e",
"U    c #000000003d3d",
"V    c #000000003b3b",
"W    c #000000003939",
"X    c #000000003737",
"Y    c #000000003434",
"Z    c #000000003333",
"..   c #000000003131",
"*.   c #000000002e2e",
"/.   c #000000002c2c",
"-.   c #000000002a2a",
"+.   c #000000002929",
"0.   c #000000002727",
"1.   c #000000002525",
"2.   c #000000002323",
"3.   c #000000002020",
"4.   c #000000001e1e",
"5.   c #020202022121",
"6.   c #080808082323",
"7.   c #090909092424",
"8.   c #0b0b0b0b2424",
"9.   c #0d0d0d0d2525",
"a.   c #101010102626",
"b.   c #151515152e2e",
"c.   c #121212122727",
"d.   c #1d1d1d1d3232",
"e.   c #181818182929",
"f.   c #1a1a1a1a2929",
"g.   c #1c1c1c1c2a2a",
"h.   c #1f1f1f1f2b2b",
"i.   c #232323232d2d",
"j.   c #292929292f2f",
"k.   c #2e2e2e2e3131",
"l.   c #2d2d2d2d3030",
"m.   c #393939393c3c",
"n.   c #3c3c3c3c3e3e",
"o.   c #313131313232",
"p.   c #00000b0b8686",
"q.   c #000006065656",
"r.   c #0a0a0d0d3838",
"s.   c #000010108282",
"t.   c #000017177373",
"u.   c #00000a0a3737",
"v.   c #000017176868",
"w.   c #0b0b11112525",
"x.   c #000017175c5c",
"y.   c #000022227878",
"z.   c #00000b0b2525",
"A.   c #00001c1c4848",
"B.   c #323234343535",
"C.   c #000044445858",
"D.   c #2f2f35353535",
"E.   c #303035353535",
"F.   c #303033333333",
"G.   c #303031313131",
"H.   c #00003a3a3030",
"I.   c #000026261e1e",
"J.   c #00005c5c3737",
"K.   c #303034343232",
"L.   c #01017d7d2727",
"M.   c #00007c7c1b1b",
"N.   c #00004e4e1010",
"O.   c #000063631111",
"P.   c #000042420a0a",
"Q.   c #000082820f0f",
"R.   c #000079790c0c",
"S.   c #000068680a0a",
"T.   c #010198980e0e",
"U.   c #000095950808",
"V.   c #0101a4a40808",
"W.   c #0808e8e81111",
"X.   c #0f0ffcfc1919",
"Y.   c #1c1cffff2525",
"Z.   c #0202d9d90909",
".*   c #01013a3a0202",
"**   c #0000c7c70303",
"/*   c #0000a5a50000",
"-*   c #0000a2a20000",
"+*   c #00009e9e0000",
"0*   c #000096960000",
"1*   c #000090900000",
"2*   c #00008a8a0000",
"3*   c #00007f7f0000",
"4*   c #000079790000",
"5*   c #000073730000",
"6*   c #00006d6d0000",
"7*   c #000065650000",
"8*   c #00005a5a0000",
"9*   c #000055550000",
"a*   c #00004a4a0000",
"b*   c #000044440000",
"c*   c #0202b4b40101",
"d*   c #0202b1b10101",
"e*   c #0101aeae0101",
"f*   c #010183830101",
"g*   c #0303bbbb0202",
"h*   c #0202abab0202",
"i*   c #0404c2c20404",
"j*   c #0505b9b90505",
"k*   c #0606c7c70808",
"l*   c #0606bebe0606",
"m*   c #0808cfcf0808",
"n*   c #0808c3c30808",
"o*   c #02022e2e0202",
"p*   c #0a0acbcb0a0a",
"q*   c #0c0cd1d10c0c",
"r*   c #1010e2e21212",
"s*   c #1010dcdc1010",
"t*   c #1616e5e51616",
"u*   c #08084a4a0808",
"v*   c #1d1df4f41d1d",
"w*   c #080824240808",
"x*   c #0a0a2c2c0a0a",
"y*   c #14142a2a1414",
"z*   c #1b1b36361b1b",
"A*   c #28282d2d2828",
"B*   c #39393c3c3939",
"C*   c #313132323131",
"D*   c #0404b8b80101",
"E*   c #040424240303",
"F*   c #2222e9e91e1e",
"G*   c #06067a7a0000",
"H*   c #1313cbcb0c0c",
"I*   c #1616bebe0606",
"J*   c #3d3decec2c2c",
"K*   c #141442420e0e",
"L*   c #14148f8f0000",
"M*   c #1717a3a30101",
"N*   c #2b2b30302a2a",
"O*   c #111153530000",
"P*   c #26267b7b0000",
"Q*   c #6464c7c72e2e",
"R*   c #21213f3f0e0e",
"S*   c #6262bdbd2323",
"T*   c #6a6a98981818",
"U*   c #535377770606",
"V*   c #363636363333",
"W*   c #323232323131",
"X*   c #3f3f3f3f3e3e",
"Y*   c #343434343333",
"Z*   c #a8a88c8c3434",
"./   c #53533a3a0000",
"*/   c #95955b5b0e0e",
"//   c #5f5f1f1f0000",
"-/   c #959526260202",
"+/   c #88881b1b0000",
"0/   c #bbbb31310f0f",
"1/   c #dddd4f4f2e2e",
"2/   c #64640f0f0000",
"3/   c #bebe00000000",
"4/   c #b9b900000000",
"5/   c #b6b600000000",
"6/   c #b1b100000000",
"7/   c #abab00000000",
"8/   c #a6a600000000",
"9/   c #a2a200000000",
"a/   c #9b9b00000000",
"b/   c #969600000000",
"c/   c #929200000000",
"d/   c #8e8e00000000",
"e/   c #898900000000",
"f/   c #868600000000",
"g/   c #7d7d00000000",
"h/   c #757500000000",
"i/   c #717100000000",
"j/   c #6a6a00000000",
"k/   c #c8c801010101",
"l/   c #c5c501010101",
"m/   c #606001010101",
"n/   c #d2d203030303",
"o/   c #d8d805050505",
"p/   c #cccc04040404",
"q/   c #cbcb04040404",
"r/   c #dcdc06060606",
"s/   c #e2e207070707",
"t/   c #e3e309090909",
"u/   c #dcdc0a0a0a0a",
"v/   c #eded0e0e0e0e",
"w/   c #5b5b07070707",
"x/   c #4f4f06060606",
"y/   c #fcfc1c1c1c1c",
"z/   c #55550c0c0c0c",
"A/   c #3e3e09090909",
"B/   c #48480f0f0f0f",
"C/   c #474717171717",
"D/   c #373720202020",
"E/   c #393925252525",
"F/   c #333328282828",
"G/   c #414140404040",
"H/   c #4a4a4a4a4a4a",
"I/   c #3d3d3d3d3d3d",
"J/   c #3b3b3b3b3b3b",
"K/   c #333333333333",
"L/   c #303030303030",
"M/   c #ffffffffffff",
"H/2 2 2 2 2 2 2 2 2 2 2 2 2 2 2 I/B*G/G/2 2 m.n.X*2 2 2 2 2 2 H/",
"J/3 3 3 3 3 3 3 3 3 3 3 K/K/K/K/3 y*y*A*K/Y*k.f.k.K/3 3 3 3 3 J/",
"2 3 3 3 3 3 3 3 3 K/E.E.G.L/L/o.g z*.*E*y*N*g a.8.o.K/3 3 3 3 2 ",
"2 3 3 3 3 3 3 3 E.L/D/d A/A/A/A/d K*9*b*o*w*N*l 3.c.K/K/3 3 3 2 ",
"2 3 3 3 3 3 K/F.D/x/m/j/i/i/j/m/x/O*6*8*b*o*E*w.+.4 e.V*3 3 3 2 ",
"2 3 3 3 3 K/G.B/j/g/e/d/d/e/f/g/2/G*4*7*9*b*o*z.Z 2.5.j.Y*3 3 2 ",
"2 3 3 3 K/G.B/h/d/a/9/8/8/9/a/a/./0*f*5*7*9*.*u.U +.3.c.Y*3 3 2 ",
"2 3 3 3 D.C/g/b/8/6/5/4/4/6/6/8/P*-*1*3*6*8*P.N R ..2.3.j.Y*3 2 ",
"2 3 3 E.E/i/c/7/4/l/k/p/q/l/l/-/d*/*0*2*4*6*H.H O X 1.4 e.V*3 2 ",
"2 3 3 o.z/d/8/4/k/n/r/u/u/u/9 U***e*+*1*3*6*A.D M V +.4 6.o.K/2 ",
"2 3 E.E/i/a/5/k/o/t/v/6 6 b 0/H*k*c*/*0*2*O.z D K S *.2.3.j.K/2 ",
"2 3 D.C/f/8/3/n/s/6 y/7 7 f T*W.p*j*h*0*1*H.t C J R ..2.4 h.V*2 ",
"2 K/F.z/c/6/l/o/v/y/7 c c 1/F*r*q*l*h*+*f*t.t B I R Z 2.4.e.V*2 ",
"2 K/L/w/b/6/k/r/v/y/c 8 8 Q*Y.t*q*j*h*/*J.q v B I Q Z 2.4.c.K/2 ",
"2 F.L/m/b/6/k/r/6 y/c c Z*Y.v*t*p*l*e*U.t.p v C I Q Z 1.4 a.K/2 ",
"2 F.L/m/b/6/l/o/v/y/7 1/J*Y.v*s*p*j*e*J.n r v C J R Z 1.4 a.K/2 ",
"2 K/L/w/d/7/3/n/t/6 y/S*Y.v*t*q*n*D*T.s.n s x D K S *.3.4 c.Y*2 ",
"2 K/F.B/f/9/5/k/o/e */X.v*t*s*p*j*c*C.m p t z E L U /.3.4.f.V*2 ",
"2 3 E.d h/b/7/3/5 */r*W.s*q*p*l*g*L.m n q v B H O W +.3.4 h.Y*2 ",
"2 3 B.F/m/f/a/5/-/I*Z.q*m*k*l*D*V.y.m p s x C J Q Y 0.4 5.l.K/2 ",
"2 3 3 F.B/i/c/+/M***i*i*g*g*d*e*C.m o r v A F M T *.2.4 9.K/3 2 ",
"2 3 3 B.F/a //L*c*d*c*c*e*h*e*J.m n q s y D J P X 0.3.4 h.V*3 2 ",
"2 3 C*C*K.R*f*+*+*-*/*/*-*/*M.p.n q s x B G N T *.2.4 5.l.Y*3 2 ",
"2 3 3 z*u*6*3*f*1*1*0*0*0*Q.t.n q s x B F K R Y 1.4 4 e.V*3 3 2 ",
"2 3 h N*o*9*7*5*4*3*f*2*R.v.o r t x B F K Q W -.3.4 6.k.K/3 3 2 ",
"2 3 3 h A*o*a*8*7*6*5*S.x.q t w z C F K Q W /.3.3.3.i.Y*3 3 3 2 ",
"2 3 3 3 h A*x*.*a*9*N.x.u y z B E I M Q W /.2.3.4 g.Y*3 3 3 3 2 ",
"2 3 3 3 3 h W*y*o*I.q.B D E F I K O S Y +.3.4 4 e.Y*3 3 3 3 3 2 ",
"2 3 3 3 3 k.i k r.M J K K L N Q T X *.1.3.4 5.g.Y*3 3 3 3 3 3 2 ",
"2 3 3 3 K/j.8.0.Z X V U U V X Z /.1.3.4 4 8.i.Y*3 3 3 3 3 3 3 2 ",
"J/3 3 3 W*h k.g.7.2.1.0.0.1.2.3.3.4.3.7.h.G.V*3 3 3 3 3 3 3 3 J/",
"H/2 2 2 2 2 X*G/I/j k d.b.b.b.l d.k j 2 G/X*2 2 2 2 2 2 2 2 2 H/"
};
